<svg width="85" height="159" viewBox="0 0 85 159" fill="none" xmlns="http://www.w3.org/2000/svg">
<g id="Group 4">
<path id="Vector 3" d="M44.9482 158C37.9482 158.5 38.948 140.334 39.948 130.5C35.7815 126.334 23.9483 117.2 9.94831 114C-7.55169 110 -0.551693 69.5002 19.9483 101.5C36.3483 127.1 40.1148 123.167 39.948 118V69.5002C39.948 51.5002 30.4481 54.0002 17.448 45.5002C4.44789 37.0003 1.44798 32.5002 17.448 27.5002C33.448 22.5003 34.448 67.0002 39.948 43.0002C45.4481 19.0002 33.4481 19.5002 30.4481 14.5002C28.0481 10.5002 39.7814 3.16691 45.9481 0.000244141C72.4481 19.5002 52.4481 7.00024 45.9481 32.5002C39.4481 58.0001 52.4481 49.0002 60.4481 32.5002C68.4481 16.0002 74.4481 19.0002 82.9481 32.5002C91.4481 46.0002 67.9481 41.0002 52.4481 54.0002C36.9481 67.0002 48.4481 101.5 45.9481 118C43.4481 134.5 56.4481 116.5 60.4481 105C64.4481 93.5002 69.9481 92.0002 77.9481 101.5C85.9481 111 48.1113 124.371 45.9481 130.5C42.9482 139 52.0013 157.496 44.9482 158Z" fill="#E0FC52"/>
<path id="Vector 4" d="M50.4481 86.0001C48.4482 84.6671 50.6481 56.9001 63.4481 62.5001C76.2481 68.1001 53.4484 88 50.4481 86.0001Z" fill="#E0FC52"/>
<path id="Vector 5" d="M36.5255 84.6551C38.3041 83.0387 31.9867 55.9106 20.1653 63.3574C8.34394 70.8042 33.8571 87.0803 36.5255 84.6551Z" fill="#E0FC52"/>
</g>
</svg>
